<svg width="70" height="117" viewBox="0 0 70 117" fill="none" xmlns="http://www.w3.org/2000/svg">
<path d="M50.2976 19.8334C49.0236 17.8887 46.5628 16.7452 43.9039 16.7452H25.5334C22.7345 16.7452 20.1666 18.0113 18.9169 20.0979C14.5886 27.3262 4.93004 44.8019 4.06263 58.1426C4.06171 58.156 4.04795 58.1668 4.03135 58.1668C4.01399 58.1668 4 58.1783 4 58.1929V99.5884C4 106.628 10.8474 112.333 19.2941 112.333H49.8824C58.3293 112.333 65.1765 106.628 65.1765 99.5884V58.1866C65.1765 58.1757 65.1658 58.1668 65.1528 58.1668C65.1405 58.1668 65.1298 58.1585 65.1291 58.1483C64.372 42.9139 54.6717 26.5091 50.2976 19.8334Z" stroke="#252423" stroke-width="8"/>
<path d="M53.7058 4H15.4705C13.3588 4 11.647 5.42654 11.647 7.18627V13.5588C11.647 15.3186 13.3588 16.7451 15.4705 16.7451H53.7058C55.8175 16.7451 57.5293 15.3186 57.5293 13.5588V7.18627C57.5293 5.42654 55.8175 4 53.7058 4Z" stroke="#252423" stroke-width="8"/>
<path d="M19.2939 61.353V96.402" stroke="#252423" stroke-width="8" stroke-linecap="round"/>
</svg>
