<svg width="96" height="109" viewBox="0 0 96 109" fill="none" xmlns="http://www.w3.org/2000/svg">
<path fill-rule="evenodd" clip-rule="evenodd" d="M86.6042 39.3666L76.7518 108.333H18.9678L9.1155 39.3671C4.01864 38.9921 0 34.7381 0 29.5455C0 28.7402 0.0987531 27.938 0.29405 27.1568L2.75617 17.3084C3.68041 13.6114 6.62629 10.8449 10.2368 10.0684L12.549 5.44411C14.2172 2.1076 17.6274 0 21.3577 0H74.3619C78.0922 0 81.5024 2.1076 83.1707 5.44411L85.4828 10.0684C89.0933 10.8449 92.0392 13.6114 92.9634 17.3084L95.4256 27.1568C96.7448 32.4336 93.5365 37.7807 88.2597 39.0999C87.716 39.2358 87.1622 39.325 86.6042 39.3666ZM19.0678 39.3939L27.5094 98.4848H68.2102L76.6518 39.3939H19.0678ZM16.4335 19.697H12.3106L9.84848 29.5455H85.8711L83.409 19.697H79.2862L74.3619 9.84848H21.3577L16.4335 19.697Z" fill="#252423"/>
</svg>
